<?xml version="1.0" encoding="UTF-8" standalone="no"?>
<!-- Created with Inkscape (http://www.inkscape.org/) -->
<svg
   xmlns:dc="http://purl.org/dc/elements/1.1/"
   xmlns:cc="http://creativecommons.org/ns#"
   xmlns:rdf="http://www.w3.org/1999/02/22-rdf-syntax-ns#"
   xmlns:svg="http://www.w3.org/2000/svg"
   xmlns="http://www.w3.org/2000/svg"
   xmlns:sodipodi="http://sodipodi.sourceforge.net/DTD/sodipodi-0.dtd"
   xmlns:inkscape="http://www.inkscape.org/namespaces/inkscape"
   width="970.91522"
   height="208.21875"
   id="svg2"
   sodipodi:version="0.32"
   inkscape:version="0.46"
   version="1.0"
   sodipodi:docname="diefenbunker.svg"
   inkscape:output_extension="org.inkscape.output.svg.inkscape">
  <defs
     id="defs4">
    <inkscape:perspective
       sodipodi:type="inkscape:persp3d"
       inkscape:vp_x="0 : 526.18109 : 1"
       inkscape:vp_y="0 : 1000 : 0"
       inkscape:vp_z="744.09448 : 526.18109 : 1"
       inkscape:persp3d-origin="372.04724 : 350.78739 : 1"
       id="perspective10" />
    <inkscape:perspective
       id="perspective2447"
       inkscape:persp3d-origin="372.04724 : 350.78739 : 1"
       inkscape:vp_z="744.09448 : 526.18109 : 1"
       inkscape:vp_y="0 : 1000 : 0"
       inkscape:vp_x="0 : 526.18109 : 1"
       sodipodi:type="inkscape:persp3d" />
  </defs>
  <sodipodi:namedview
     id="base"
     pagecolor="#ffffff"
     bordercolor="#666666"
     borderopacity="1.0"
     gridtolerance="10000"
     guidetolerance="10"
     objecttolerance="10"
     inkscape:pageopacity="0.0"
     inkscape:pageshadow="2"
     inkscape:zoom="1.3296733"
     inkscape:cx="485.45761"
     inkscape:cy="105.51676"
     inkscape:document-units="in"
     inkscape:current-layer="layer1"
     showgrid="false"
     borderlayer="true"
     units="in"
     inkscape:window-width="1392"
     inkscape:window-height="972"
     inkscape:window-x="0"
     inkscape:window-y="25" />
  <metadata
     id="metadata7">
    <rdf:RDF>
      <cc:Work
         rdf:about="">
        <dc:format>image/svg+xml</dc:format>
        <dc:type
           rdf:resource="http://purl.org/dc/dcmitype/StillImage" />
      </cc:Work>
    </rdf:RDF>
  </metadata>
  <g
     inkscape:label="Layer 1"
     inkscape:groupmode="layer"
     id="layer1"
     transform="translate(-37.742374,-256.97957)">
    <g
       id="g2400">
      <path
         id="path2453"
         transform="translate(37.742374,256.97957)"
         d="M 140,0 C 105.66578,0 74.20981,12.42884 49.84375,33 L 27.6875,33 L 22.4375,33 L 22.4375,38.3125 L 22.4375,64.0625 C 8.2398689,85.98021 -2.7e-05,112.10845 0,140.125 C 0,164.84508 6.4547508,188.05365 17.71875,208.21875 L 262.375,208.21875 C 273.65681,188.05363 280.12503,164.84508 280.125,140.125 C 280.12499,112.11015 271.87264,85.97938 257.65625,64.0625 L 257.65625,38.3125 L 257.65625,33 L 252.40625,33 L 230.21875,33 C 205.82457,12.423411 174.33929,4e-05 140,0 z M 140,10.5625 C 167.04877,10.56252 192.16171,18.82486 212.9375,33 L 67.09375,33 C 87.847978,18.824851 112.95123,10.5625 140,10.5625 z M 32.96875,43.59375 L 38.59375,43.59375 C 36.663367,45.62412 34.776003,47.70077 32.96875,49.84375 L 32.96875,43.59375 z M 53.625,43.59375 L 226.4375,43.59375 C 234.24362,50.58661 241.20038,58.50409 247.125,67.1875 L 247.125,198.25 L 210.0625,198.25 L 210.0625,72.6875 L 210.0625,67.40625 L 204.8125,67.40625 L 71.3125,67.40625 L 66.03125,67.40625 L 66.03125,72.6875 L 66.03125,198.25 L 32.96875,198.25 L 32.96875,67.1875 C 38.88379,58.505572 45.829532,50.5856 53.625,43.59375 z M 241.4375,43.59375 L 247.125,43.59375 L 247.125,49.90625 C 245.2973,47.739041 243.39104,45.64596 241.4375,43.59375 z M 76.59375,77.9375 L 113.21875,77.9375 C 91.67611,87.503752 76.59372,109.08697 76.59375,134.125 C 76.593747,167.98528 104.17097,195.56247 138.03125,195.5625 C 171.89153,195.56251 199.50004,167.98529 199.5,134.125 C 199.49999,109.08695 184.40077,87.50375 162.84375,77.9375 L 199.53125,77.9375 L 199.53125,198.25 L 76.59375,198.25 L 76.59375,134.125 L 76.59375,77.9375 z M 138.03125,83.25 C 166.183,83.25002 188.96875,105.97325 188.96875,134.125 C 188.96876,162.27675 166.183,185 138.03125,185 C 109.87946,184.99999 87.1875,162.27676 87.1875,134.125 C 87.187503,105.97324 109.87949,83.25 138.03125,83.25 z M 22.4375,85.84375 L 22.4375,194.40625 C 14.812175,177.89932 10.53125,159.52128 10.53125,140.125 C 10.531237,120.73752 14.818688,102.3579 22.4375,85.84375 z M 257.65625,85.84375 C 265.28806,102.3579 269.5625,120.73751 269.5625,140.125 C 269.56252,159.52128 265.29456,177.89931 257.65625,194.40625 L 257.65625,85.84375 z"
         style="fill:#000000;fill-opacity:1;stroke:none;stroke-width:6.52235317;stroke-linecap:square;stroke-miterlimit:4;stroke-dasharray:none;stroke-opacity:1" />
      <rect
         y="349.37546"
         x="155.72775"
         height="34.651974"
         width="43.201077"
         id="rect3231"
         style="fill:#e31836;fill-opacity:1;stroke:none;stroke-width:7.91999912;stroke-linecap:square;stroke-miterlimit:4;stroke-dasharray:none;stroke-opacity:1" />
      <text
         sodipodi:linespacing="100%"
         id="text3278"
         y="354.99869"
         x="345.04398"
         style="font-size:116.99067688px;font-style:normal;font-variant:normal;font-weight:normal;font-stretch:condensed;text-align:start;line-height:100%;writing-mode:lr-tb;text-anchor:start;fill:#000000;fill-opacity:1;stroke:none;stroke-width:1px;stroke-linecap:butt;stroke-linejoin:miter;stroke-opacity:1;font-family:Impact;-inkscape-font-specification:Impact Condensed"
         xml:space="preserve"><tspan
           y="354.99869"
           x="345.04398"
           id="tspan3280"
           sodipodi:role="line">Diefenbunker.</tspan></text>
      <text
         sodipodi:linespacing="100%"
         id="text3282"
         y="413.10141"
         x="349.64664"
         style="font-size:42.62861252px;font-style:normal;font-variant:normal;font-weight:normal;font-stretch:condensed;text-align:start;line-height:100%;writing-mode:lr-tb;text-anchor:start;fill:#000000;fill-opacity:1;stroke:none;stroke-width:1px;stroke-linecap:butt;stroke-linejoin:miter;stroke-opacity:1;font-family:Impact;-inkscape-font-specification:Impact Condensed"
         xml:space="preserve"><tspan
           y="413.10141"
           x="349.64664"
           id="tspan3284"
           sodipodi:role="line">Canada's Cold War Museum</tspan></text>
      <text
         xml:space="preserve"
         style="font-size:42.62861252px;font-style:normal;font-variant:normal;font-weight:normal;font-stretch:condensed;text-align:start;line-height:100%;writing-mode:lr-tb;text-anchor:start;fill:#000000;fill-opacity:1;stroke:none;stroke-width:1px;stroke-linecap:butt;stroke-linejoin:miter;stroke-opacity:1;font-family:Impact;-inkscape-font-specification:Impact Condensed"
         x="348.71207"
         y="463.30539"
         id="text3286"
         sodipodi:linespacing="100%"><tspan
           y="463.30539"
           x="348.71207"
           id="tspan3294"
           sodipodi:role="line">Musée canadien de la Guerre froide</tspan></text>
    </g>
  </g>
</svg>
