<?xml version="1.0" encoding="UTF-8" standalone="no"?>
<!-- Created with Inkscape (http://www.inkscape.org/) -->

<svg
   xmlns:dc="http://purl.org/dc/elements/1.1/"
   xmlns:cc="http://creativecommons.org/ns#"
   xmlns:rdf="http://www.w3.org/1999/02/22-rdf-syntax-ns#"
   xmlns:svg="http://www.w3.org/2000/svg"
   xmlns="http://www.w3.org/2000/svg"
   version="1.0"
   width="1146.1094"
   height="208.21875"
   id="svg2">
  <defs
     id="defs4" />
  <metadata
     id="metadata7">
    <rdf:RDF>
      <cc:Work
         rdf:about="">
        <dc:format>image/svg+xml</dc:format>
        <dc:type
           rdf:resource="http://purl.org/dc/dcmitype/StillImage" />
        <dc:title></dc:title>
        <dc:creator>
          <cc:Agent>
            <dc:title>Tyler Tidman VA3DGN</dc:title>
          </cc:Agent>
        </dc:creator>
      </cc:Work>
    </rdf:RDF>
  </metadata>
  <g
     transform="translate(-37.742374,-256.97957)"
     id="layer1">
    <g
       id="g3007">
      <path
         d="m 177.74237,256.97957 c -34.33422,0 -65.79019,12.42884 -90.156246,33 l -22.15625,0 -5.25,0 0,5.3125 0,25.75 c -14.197631,21.91771 -22.437527,48.04595 -22.4375,76.0625 0,24.72008 6.454751,47.92865 17.71875,68.09375 l 244.656246,0 c 11.28181,-20.16512 17.75003,-43.37367 17.75,-68.09375 -10e-6,-28.01485 -8.25236,-54.14562 -22.46875,-76.0625 l 0,-25.75 0,-5.3125 -5.25,0 -22.1875,0 c -24.39418,-20.57659 -55.87946,-32.99996 -90.21875,-33 z m 0,10.5625 c 27.04877,2e-5 52.16171,8.26236 72.9375,22.4375 l -145.84375,0 c 20.75423,-14.17515 45.85748,-22.4375 72.90625,-22.4375 z m -107.031246,33.03125 5.625,0 c -1.930383,2.03037 -3.817747,4.10702 -5.625,6.25 l 0,-6.25 z m 20.65625,0 172.812496,0 c 7.80612,6.99286 14.76288,14.91034 20.6875,23.59375 l 0,131.0625 -37.0625,0 0,-125.5625 0,-5.28125 -5.25,0 -133.5,0 -5.28125,0 0,5.28125 0,125.5625 -33.062496,0 0,-131.0625 c 5.91504,-8.68193 12.860782,-16.6019 20.65625,-23.59375 z m 187.812496,0 5.6875,0 0,6.3125 c -1.8277,-2.16721 -3.73396,-4.26029 -5.6875,-6.3125 z m -164.84375,34.34375 36.625,0 c -21.54264,9.56625 -36.62503,31.14947 -36.625,56.1875 0,33.86028 27.57722,61.43747 61.4375,61.4375 33.86028,10e-6 61.46879,-27.57721 61.46875,-61.4375 -1e-5,-25.03805 -15.09923,-46.62125 -36.65625,-56.1875 l 36.6875,0 0,120.3125 -122.9375,0 0,-64.125 0,-56.1875 z m 61.4375,5.3125 c 28.15175,2e-5 50.9375,22.72325 50.9375,50.875 1e-5,28.15175 -22.78575,50.875 -50.9375,50.875 -28.15179,-1e-5 -50.84375,-22.72324 -50.84375,-50.875 1e-5,-28.15176 22.69199,-50.875 50.84375,-50.875 z m -115.593746,2.59375 0,108.5625 c -7.625325,-16.50693 -11.90625,-34.88497 -11.90625,-54.28125 -1.3e-5,-19.38748 4.287438,-37.7671 11.90625,-54.28125 z m 235.218746,0 c 7.63181,16.51415 11.90625,34.89376 11.90625,54.28125 2e-5,19.39628 -4.26794,37.77431 -11.90625,54.28125 l 0,-108.5625 z"
         id="path2453"
         style="fill:#000000;fill-opacity:1;stroke:none" />
      <rect
         width="43.201077"
         height="34.651974"
         x="155.72775"
         y="349.37546"
         id="rect3231"
         style="fill:#e31836;fill-opacity:1;stroke:none" />
      <text
         x="337.04398"
         y="346.99869"
         id="text3278"
         xml:space="preserve"
         style="font-size:100px;font-style:normal;font-variant:normal;font-weight:bold;font-stretch:normal;text-align:start;line-height:100%;writing-mode:lr-tb;text-anchor:start;fill:#000000;fill-opacity:1;stroke:none;font-family:Impact;-inkscape-font-specification:Impact Bold"><tspan
           x="337.04398"
           y="346.99869"
           id="tspan2830">Diefenbunker</tspan></text>
      <text
         x="341.64664"
         y="405.10141"
         id="text3282"
         xml:space="preserve"
         style="font-size:50px;font-style:normal;font-variant:normal;font-weight:bold;font-stretch:normal;text-align:start;line-height:100%;writing-mode:lr-tb;text-anchor:start;fill:#000000;fill-opacity:1;stroke:none;font-family:Arial;-inkscape-font-specification:Arial Bold"><tspan
           x="341.64664"
           y="405.10141"
           id="tspan3284">Canada's Cold War Museum</tspan></text>
      <text
         x="340.71207"
         y="455.30539"
         id="text3286"
         xml:space="preserve"
         style="font-size:50px;font-style:normal;font-variant:normal;font-weight:bold;font-stretch:normal;text-align:start;line-height:100%;writing-mode:lr-tb;text-anchor:start;fill:#000000;fill-opacity:1;stroke:none;font-family:Arial;-inkscape-font-specification:Arial Bold"><tspan
           x="340.71207"
           y="455.30539"
           id="tspan3294">Musée canadien de la Guerre froide</tspan></text>
      <text
         x="887.16736"
         y="346.69077"
         id="text3001"
         xml:space="preserve"
         style="font-size:14px;font-style:normal;font-variant:normal;font-weight:bold;font-stretch:normal;text-align:start;line-height:125%;letter-spacing:0px;word-spacing:0px;writing-mode:lr-tb;text-anchor:start;fill:#000000;fill-opacity:1;stroke:none;font-family:Arial;-inkscape-font-specification:Arial Bold"><tspan
           x="887.16736"
           y="346.69077"
           id="tspan3005">®</tspan></text>
    </g>
  </g>
</svg>
